{"scene":0,"asset":{"generator":"ImageToStl.com","version":"2.0"},"scenes":[{"name":"Scene","nodes":[0]}],"nodes":[{"name":"Node0","children":[1,2,3,4,5,6,7]},{"name":"Node1","mesh":0},{"name":"Node2","mesh":1},{"name":"Node3","mesh":2},{"name":"Node4","mesh":3},{"name":"Node5","mesh":4},{"name":"Node6","mesh":5},{"name":"Node7","mesh":6}],"materials":[{"name":"Material.0011","pbrMetallicRoughness":{"baseColorFactor":[0.50133,0.0,0.005797,1.0],"metallicFactor":0.5,"roughnessFactor":0.90392154},"emissiveFactor":[0.0,0.0,0.0],"doubleSided":true},{"name":"Material.0062","pbrMetallicRoughness":{"baseColorFactor":[0.64,0.0,0.001232,1.0],"metallicFactor":0.5,"roughnessFactor":0.90392154},"emissiveFactor":[0.0,0.0,0.0],"doubleSided":true},{"name":"Material.0073","pbrMetallicRoughness":{"baseColorFactor":[0.64,0.0,0.002279,1.0],"metallicFactor":0.5,"roughnessFactor":0.90392154},"emissiveFactor":[0.0,0.0,0.0],"doubleSided":true},{"name":"Material.0034","pbrMetallicRoughness":{"baseColorFactor":[0.233753,0.421964,0.578433,1.0],"metallicFactor":0.5,"roughnessFactor":0.90392154},"emissiveFactor":[0.0,0.0,0.0],"doubleSided":true},{"name":"Material.0085","pbrMetallicRoughness":{"baseColorFactor":[0.474063,0.001529,0.0,1.0],"metallicFactor":0.5,"roughnessFactor":0.90392154},"emissiveFactor":[0.0,0.0,0.0],"doubleSided":true},{"name":"Material.0056","pbrMetallicRoughness":{"baseColorFactor":[0.8,0.468863,0.0,1.0],"metallicFactor":0.5,"roughnessFactor":0.90392154},"emissiveFactor":[0.0,0.0,0.0],"doubleSided":true},{"name":"Material.0047","pbrMetallicRoughness":{"baseColorFactor":[0.766112,0.8,0.774504,1.0],"metallicFactor":0.5,"roughnessFactor":0.90392154},"emissiveFactor":[0.0,0.0,0.0],"doubleSided":true}],"meshes":[{"name":"Mesh0","primitives":[{"indices":2,"material":0,"attributes":{"POSITION":0,"NORMAL":1}}]},{"name":"Mesh0","primitives":[{"indices":5,"material":1,"attributes":{"POSITION":3,"NORMAL":4}}]},{"name":"Mesh0","primitives":[{"indices":8,"material":2,"attributes":{"POSITION":6,"NORMAL":7}}]},{"name":"Mesh0","primitives":[{"indices":11,"material":3,"attributes":{"POSITION":9,"NORMAL":10}}]},{"name":"Mesh0","primitives":[{"indices":14,"material":4,"attributes":{"POSITION":12,"NORMAL":13}}]},{"name":"Mesh0","primitives":[{"indices":17,"material":5,"attributes":{"POSITION":15,"NORMAL":16}}]},{"name":"Mesh0","primitives":[{"indices":20,"material":6,"attributes":{"POSITION":18,"NORMAL":19}}]}],"accessors":[{"bufferView":0,"componentType":5126,"count":4610,"type":"VEC3","min":[-1.6722097,-0.94807863,0.3464976],"max":[0.9151808,0.9417608,2.1603808]},{"bufferView":1,"componentType":5126,"count":4610,"type":"VEC3"},{"bufferView":2,"componentType":5123,"count":27648,"type":"SCALAR"},{"bufferView":3,"componentType":5126,"count":4610,"type":"VEC3","min":[0.7014549,0.026642919,0.9503883],"max":[1.5970315,0.72285175,1.6391273]},{"bufferView":4,"componentType":5126,"count":4610,"type":"VEC3"},{"bufferView":5,"componentType":5123,"count":27648,"type":"SCALAR"},{"bufferView":6,"componentType":5126,"count":4610,"type":"VEC3","min":[0.7360219,-0.72924614,0.9000572],"max":[1.6315985,-0.03303732,1.5887961]},{"bufferView":7,"componentType":5126,"count":4610,"type":"VEC3"},{"bufferView":8,"componentType":5123,"count":27648,"type":"SCALAR"},{"bufferView":9,"componentType":5126,"count":1313,"type":"VEC3","min":[-1.3585367,-0.7160145,1.7061715],"max":[-0.5050459,0.5162429,2.2038193]},{"bufferView":10,"componentType":5126,"count":1313,"type":"VEC3"},{"bufferView":11,"componentType":5123,"count":7680,"type":"SCALAR"},{"bufferView":12,"componentType":5126,"count":1922,"type":"VEC3","min":[-1.1263463,-0.60612273,-0.0689702],"max":[0.15745616,0.6868448,0.62984085]},{"bufferView":13,"componentType":5126,"count":1922,"type":"VEC3"},{"bufferView":14,"componentType":5123,"count":11520,"type":"SCALAR"},{"bufferView":15,"componentType":5126,"count":9840,"type":"VEC3","min":[-1.8126183,-0.27934888,0.9722906],"max":[-1.5538263,0.2494439,1.5008385]},{"bufferView":16,"componentType":5126,"count":9840,"type":"VEC3"},{"bufferView":17,"componentType":5123,"count":15360,"type":"SCALAR"},{"bufferView":18,"componentType":5126,"count":5634,"type":"VEC3","min":[-1.7310271,-0.69520974,0.58684325],"max":[-1.4373169,0.5969542,1.854696]},{"bufferView":19,"componentType":5126,"count":5634,"type":"VEC3"},{"bufferView":20,"componentType":5123,"count":33792,"type":"SCALAR"}],"bufferViews":[{"target":34962,"buffer":0,"byteLength":55320,"byteOffset":0},{"target":34962,"buffer":0,"byteLength":55320,"byteOffset":55320},{"target":34963,"buffer":0,"byteLength":55296,"byteOffset":110640},{"target":34962,"buffer":0,"byteLength":55320,"byteOffset":165936},{"target":34962,"buffer":0,"byteLength":55320,"byteOffset":221256},{"target":34963,"buffer":0,"byteLength":55296,"byteOffset":276576},{"target":34962,"buffer":0,"byteLength":55320,"byteOffset":331872},{"target":34962,"buffer":0,"byteLength":55320,"byteOffset":387192},{"target":34963,"buffer":0,"byteLength":55296,"byteOffset":442512},{"target":34962,"buffer":0,"byteLength":15756,"byteOffset":497808},{"target":34962,"buffer":0,"byteLength":15756,"byteOffset":513564},{"target":34963,"buffer":0,"byteLength":15360,"byteOffset":529320},{"target":34962,"buffer":0,"byteLength":23064,"byteOffset":544680},{"target":34962,"buffer":0,"byteLength":23064,"byteOffset":567744},{"target":34963,"buffer":0,"byteLength":23040,"byteOffset":590808},{"target":34962,"buffer":0,"byteLength":118080,"byteOffset":613848},{"target":34962,"buffer":0,"byteLength":118080,"byteOffset":731928},{"target":34963,"buffer":0,"byteLength":30720,"byteOffset":850008},{"target":34962,"buffer":0,"byteLength":67608,"byteOffset":880728},{"target":34962,"buffer":0,"byteLength":67608,"byteOffset":948336},{"target":34963,"buffer":0,"byteLength":67584,"byteOffset":1015944}],"buffers":[{"byteLength":1083528,"uri":"data:application/octet-stream;base64,"}]}